<svg width="10" height="10" viewBox="0 0 10 10" fill="none" xmlns="http://www.w3.org/2000/svg">
<path d="M9.77193 0.228069C10.076 0.532161 10.076 1.02519 9.77193 1.32928L6.10128 4.99994L9.77205 8.67072C10.0761 8.97481 10.0761 9.46784 9.77205 9.77193C9.46796 10.076 8.97493 10.076 8.67084 9.77193L5.00006 6.10115L1.32928 9.77193C1.02519 10.076 0.532161 10.076 0.228069 9.77193C-0.0760227 9.46784 -0.0760234 8.97481 0.228069 8.67072L3.89885 4.99994L0.228192 1.32928C-0.0759003 1.02519 -0.0758996 0.532161 0.228193 0.228069C0.532285 -0.076023 1.02532 -0.076023 1.32941 0.228069L5.00006 3.89872L8.67072 0.228069C8.97481 -0.076023 9.46784 -0.076023 9.77193 0.228069Z" fill="white"/>
</svg>
